<svg width="400" height="694" viewBox="0 0 400 694" fill="none" xmlns="http://www.w3.org/2000/svg">
<path d="M70.2358 63.3074C69.2835 96.6396 52.1809 127.789 44.6415 137.114H332.727C312.728 122.829 299.99 80.5688 301.18 63.3074V54.3076C301.18 25.4189 277.761 2 248.873 2H122.544C93.6548 2 70.2358 25.4189 70.2358 54.3076V63.3074Z" fill="#770000"/>
<path d="M70.831 630.55C69.8787 597.218 51.5856 557.14 44.0462 547.815H333.322C313.323 562.1 300.585 613.289 301.776 630.55V639.55C301.776 668.439 278.357 691.858 249.468 691.858H123.139C94.2499 691.858 70.831 668.439 70.831 639.55V630.55Z" fill="#770000"/>
<rect y="122.234" width="377.368" height="441.652" rx="104.615" fill="#E90000"/>
<rect x="16.6663" y="138.9" width="344.036" height="408.319" rx="90.2307" fill="black"/>
<rect opacity="0.7" x="39.2934" y="161.189" width="298.799" height="363.083" rx="64.0769" fill="#F2F4FC" fill-opacity="0.14"/>
<rect x="39.0583" y="162" width="300" height="363" rx="64" fill="#090137"/>
<rect x="39.0583" y="162" width="300" height="363" rx="64" fill="#700097"/>
<path d="M99.2 312H80.1C75.6333 307.533 72.4 302.267 70.4 296.2C68.4667 290.133 67.5 284.067 67.5 278C67.5 262.467 71.7 250.467 80.1 242H99.2C103.6 246.467 106.8 251.733 108.8 257.8C110.8 263.8 111.8 269.8 111.8 275.8C111.8 291.533 107.6 303.6 99.2 312ZM94 254H85.4C82.4667 260 81 267.633 81 276.9C81 286.167 82.4333 294 85.3 300.4H94.1C96.9667 293.067 98.4 285 98.4 276.2C98.4 267.4 96.9333 260 94 254ZM148.516 312H129.416C124.95 307.533 121.716 302.267 119.716 296.2C117.783 290.133 116.816 284.067 116.816 278C116.816 262.467 121.016 250.467 129.416 242H148.516C152.916 246.467 156.116 251.733 158.116 257.8C160.116 263.8 161.116 269.8 161.116 275.8C161.116 291.533 156.916 303.6 148.516 312ZM143.316 254H134.716C131.783 260 130.316 267.633 130.316 276.9C130.316 286.167 131.75 294 134.616 300.4H143.416C146.283 293.067 147.716 285 147.716 276.2C147.716 267.4 146.25 260 143.316 254ZM191.233 260.9H200.733C203.666 264.633 205.666 268.367 206.733 272.1C207.799 275.833 208.333 280.5 208.333 286.1V312H195.033V285.1C195.033 278.767 194.166 274.2 192.433 271.4H181.233V312H167.933V242H181.233V264.5C182.699 263.167 184.066 262.233 185.333 261.7C186.666 261.167 188.633 260.9 191.233 260.9ZM246.466 312H227.366C222.899 307.533 219.666 302.267 217.666 296.2C215.732 290.133 214.766 284.067 214.766 278C214.766 262.467 218.966 250.467 227.366 242H246.466C250.866 246.467 254.066 251.733 256.066 257.8C258.066 263.8 259.066 269.8 259.066 275.8C259.066 291.533 254.866 303.6 246.466 312ZM241.266 254H232.666C229.732 260 228.266 267.633 228.266 276.9C228.266 286.167 229.699 294 232.566 300.4H241.366C244.232 293.067 245.666 285 245.666 276.2C245.666 267.4 244.199 260 241.266 254ZM295.782 312H276.682C272.215 307.533 268.982 302.267 266.982 296.2C265.049 290.133 264.082 284.067 264.082 278C264.082 262.467 268.282 250.467 276.682 242H295.782C300.182 246.467 303.382 251.733 305.382 257.8C307.382 263.8 308.382 269.8 308.382 275.8C308.382 291.533 304.182 303.6 295.782 312ZM290.582 254H281.982C279.049 260 277.582 267.633 277.582 276.9C277.582 286.167 279.015 294 281.882 300.4H290.682C293.549 293.067 294.982 285 294.982 276.2C294.982 267.4 293.515 260 290.582 254Z" fill="white"/>
<path d="M44.5 138C107.167 93 237.2 2.89998 256 2.49998C274.8 2.09998 122.833 92.6667 44.5 138Z" stroke="black" stroke-width="3"/>
<path d="M333 139C265.068 93.8344 124.109 3.4028 103.73 3.00133C83.3502 2.59985 248.085 93.4998 333 139Z" stroke="black" stroke-width="3"/>
<path d="M44 549C106.639 596.49 236.613 691.576 255.405 691.999C274.197 692.421 122.298 596.842 44 549Z" stroke="black" stroke-width="3"/>
<path d="M333 548C265.068 595.49 124.109 690.576 103.73 690.999C83.3502 691.421 248.085 595.842 333 548Z" stroke="black" stroke-width="3"/>
<path fill-rule="evenodd" clip-rule="evenodd" d="M257.385 396.006C259.727 395.818 258.429 399.992 265.433 401.13C271.493 401.07 271.772 397.481 273.168 396.356C274.121 395.588 276.102 396.546 278.803 398.284C281.29 399.937 282.008 400.831 282.104 401.532C282.264 402.693 281.115 403.208 280.887 405.349C280.765 406.495 280.486 408.107 281.752 410.533C283.221 413.348 284.477 413.927 285.597 414.49C289.076 416.24 290.485 411.562 290.951 421.567C291.357 430.293 289.232 425.314 285.604 427.164C284.627 427.663 283.329 428.009 282.196 430.028C275.822 441.388 288.55 437.252 278.123 444.432C271.291 449.017 272.4 440.755 266.877 440.574C254.468 440.365 264.19 450.057 253.148 444.013C251.129 443.059 250.048 441.888 249.619 441.117C249.251 440.453 249.382 440.203 249.62 439.273C250.126 437.287 251.418 434.247 250.166 431.904C244.131 421.144 241.615 433.979 241 420.73C241.047 418.075 241.135 416.344 241.758 415.677C242.403 414.987 243.603 415.402 244.801 415.017C245.878 414.671 247.89 414.212 248.806 412.584C255.174 401.16 243.251 403.45 253.828 397.866C256.011 396.713 256.716 396.06 257.385 396.006H257.385Z" fill="url(#paint0_linear_37_637)"/>
<path fill-rule="evenodd" clip-rule="evenodd" d="M265.756 407.697C272.545 407.697 278.136 413.66 278.136 420.903C278.136 428.146 272.545 434.109 265.756 434.109C258.967 434.109 253.377 428.146 253.377 420.903C253.377 413.66 258.967 407.697 265.756 407.697ZM265.756 416.287C263.319 416.287 261.429 418.303 261.429 420.903C261.429 423.503 263.319 425.519 265.756 425.519C268.194 425.519 270.083 423.503 270.083 420.903C270.083 418.303 268.194 416.287 265.756 416.287Z" fill="url(#paint1_linear_37_637)"/>
<path fill-rule="evenodd" clip-rule="evenodd" d="M257.403 420.903C257.403 425.824 261.143 429.814 265.756 429.814C270.369 429.814 274.109 425.824 274.109 420.903C274.109 415.982 270.369 411.992 265.756 411.992C261.143 411.992 257.403 415.982 257.403 420.903Z" fill="url(#paint2_linear_37_637)"/>
<path d="M328 416.985L319.516 410.064C319.409 409.976 319.275 409.98 319.172 410.069C319.065 410.157 319 410.314 319 410.491C319 410.491 319.003 411.129 319.007 412.179L325.187 421L328 416.985Z" fill="white"/>
<path d="M332.821 420.706L327.871 417L325 420.757L328.239 425L332.825 421.501C332.933 421.418 333 421.266 333 421.106C333 420.94 332.93 420.789 332.821 420.706Z" fill="#6D0000"/>
<path d="M319 429.074C319.007 430.583 319.01 431.549 319.01 431.549C319.01 431.712 319.073 431.862 319.176 431.939C319.279 432.02 319.406 432.02 319.509 431.939L328 425.189L324.927 421L319 429.074Z" fill="white"/>
<path d="M56 418.985L64.4841 412.064C64.5908 411.976 64.7249 411.98 64.828 412.069C64.9347 412.157 65 412.314 65 412.491C65 412.491 64.9966 413.129 64.9931 414.179L58.8131 423L56 418.985Z" fill="white"/>
<path d="M51.1788 422.706L56.1288 419L59 422.757L55.7607 427L51.1753 423.501C51.0666 423.418 51 423.266 51 423.106C51 422.94 51.0701 422.789 51.1788 422.706Z" fill="#6D0000"/>
<path d="M65 431.074C64.9933 432.583 64.99 433.549 64.99 433.549C64.99 433.712 64.9268 433.862 64.8237 433.939C64.7206 434.02 64.5942 434.02 64.4911 433.939L56 427.189L59.0732 423L65 431.074Z" fill="white"/>
<path d="M137.553 419.543C136.935 414.9 135.291 410.693 132.401 407.611C129.317 404.722 125.108 403.079 120.462 402.461C116.03 401.873 113.007 402.015 113.007 402.015C113.007 402.015 109.985 401.873 105.552 402.461C100.907 403.079 96.6973 404.722 93.624 407.611C90.7231 410.693 89.0799 414.9 88.4612 419.543C87.8729 423.974 88.0149 426.995 88.0149 426.995C88.0149 426.995 87.8729 430.016 88.4612 434.446C89.0799 439.089 90.7231 443.297 93.6138 446.379C96.6973 449.278 100.907 450.92 105.542 451.539C109.974 452.127 112.997 451.985 112.997 451.985C112.997 451.985 116.02 452.127 120.452 451.539C125.098 450.92 129.307 449.278 132.38 446.379C135.281 443.297 136.924 439.089 137.533 434.446C138.121 430.016 137.979 426.995 137.979 426.995C137.979 426.995 138.142 423.974 137.553 419.543Z" fill="#7882FF"/>
<path d="M125.808 423.295C127.786 430.391 123.627 437.751 116.527 439.728C109.427 441.705 102.063 437.548 100.085 430.452C98.1073 423.355 102.266 415.995 109.366 414.018C116.466 412.041 123.83 416.198 125.808 423.295Z" fill="white"/>
<path d="M125.808 423.295C126.548 425.961 126.427 428.657 125.615 431.091C125.554 431.283 125.483 431.486 125.402 431.679" fill="white"/>
<path d="M125.595 423.295C126.112 425.16 126.214 427.046 125.94 428.84L125.595 423.295Z" fill="white"/>
<path d="M121.872 436.241C118.495 436.241 114.387 435.379 110.289 433.828C106.191 432.277 102.55 430.188 100.024 427.948C95.9266 424.308 96.1801 421.49 96.6974 420.131C97.2147 418.773 98.8985 416.492 104.376 416.492C107.753 416.492 111.861 417.354 115.959 418.905C120.057 420.456 123.698 422.544 126.224 424.785C130.321 428.424 130.068 431.243 129.551 432.601C129.043 433.96 127.36 436.241 121.872 436.241ZM104.386 420.719C101.85 420.719 100.765 421.348 100.653 421.632C100.542 421.916 100.947 423.112 102.844 424.795C104.964 426.67 108.23 428.536 111.8 429.884C115.371 431.243 119.053 432.023 121.883 432.023C124.418 432.023 125.504 431.395 125.615 431.111C125.727 430.827 125.321 429.631 123.434 427.948C121.314 426.072 118.048 424.207 114.478 422.859C110.887 421.5 107.216 420.719 104.386 420.719Z" fill="#4D5CC1"/>
<path d="M100.653 421.672L125.595 431.141C126.427 428.688 126.558 425.971 125.808 423.295C123.83 416.198 116.476 412.041 109.366 414.018C105.289 415.154 102.185 418.063 100.653 421.672Z" fill="white"/>
<path d="M201.061 417.239L174.612 402.139C174.28 401.946 173.861 401.957 173.54 402.15C173.207 402.343 173.004 402.685 173.004 403.071C173.004 403.071 173.015 404.463 173.025 406.755L192.291 425.999L201.061 417.239Z" fill="url(#paint3_linear_37_637)"/>
<path d="M173.025 406.755C173.057 415.022 173.154 435.091 173.197 445.082L192.302 425.999L173.025 406.755Z" fill="url(#paint4_linear_37_637)"/>
<path d="M216.199 425.881L201.061 417.239L192.28 425.999L202.187 435.894L216.21 427.734C216.542 427.541 216.746 427.187 216.746 426.813C216.746 426.427 216.532 426.074 216.199 425.881Z" fill="url(#paint5_linear_37_637)"/>
<path d="M173.186 445.082C173.207 448.648 173.218 450.929 173.218 450.929C173.218 451.315 173.422 451.668 173.754 451.85C174.087 452.043 174.494 452.043 174.826 451.85L202.198 435.904L192.291 426.009L173.186 445.082Z" fill="url(#paint6_linear_37_637)"/>
<defs>
<linearGradient id="paint0_linear_37_637" x1="281.511" y1="399.368" x2="281.511" y2="446.495" gradientUnits="userSpaceOnUse">
<stop stop-color="#818A92"/>
<stop offset="1" stop-color="#65717B"/>
</linearGradient>
<linearGradient id="paint1_linear_37_637" x1="266.916" y1="408.933" x2="266.916" y2="433.439" gradientUnits="userSpaceOnUse">
<stop stop-color="#C6CDD0"/>
<stop offset="1" stop-color="#F8FAFB"/>
</linearGradient>
<linearGradient id="paint2_linear_37_637" x1="272.806" y1="414.448" x2="259.192" y2="426.625" gradientUnits="userSpaceOnUse">
<stop stop-color="#0967B6"/>
<stop offset="1" stop-color="#0F4D8F"/>
</linearGradient>
<linearGradient id="paint3_linear_37_637" x1="173.004" y1="414.004" x2="201.066" y2="414.004" gradientUnits="userSpaceOnUse">
<stop stop-color="#63BE6B"/>
<stop offset="0.506" stop-color="#5BBC6A"/>
<stop offset="1" stop-color="#4AB96A"/>
</linearGradient>
<linearGradient id="paint4_linear_37_637" x1="173.02" y1="425.923" x2="192.291" y2="425.923" gradientUnits="userSpaceOnUse">
<stop stop-color="#3EC6F2"/>
<stop offset="1" stop-color="#45AFE3"/>
</linearGradient>
<linearGradient id="paint5_linear_37_637" x1="192.291" y1="426.573" x2="216.744" y2="426.573" gradientUnits="userSpaceOnUse">
<stop stop-color="#FAA51A"/>
<stop offset="0.387" stop-color="#FAB716"/>
<stop offset="0.741" stop-color="#FAC412"/>
<stop offset="1" stop-color="#FAC80F"/>
</linearGradient>
<linearGradient id="paint6_linear_37_637" x1="173.191" y1="439.002" x2="202.197" y2="439.002" gradientUnits="userSpaceOnUse">
<stop stop-color="#EC3B50"/>
<stop offset="1" stop-color="#E7515B"/>
</linearGradient>
</defs>
</svg>
