<svg width="378" height="690" viewBox="0 0 378 690" fill="none" xmlns="http://www.w3.org/2000/svg">
<path d="M70.2358 61.3074C69.2835 94.6396 52.1809 125.789 44.6415 135.114H332.727C312.728 120.829 299.99 78.5688 301.18 61.3074V52.3076C301.18 23.4189 277.761 0 248.873 0H122.544C93.6548 0 70.2358 23.4189 70.2358 52.3076V61.3074Z" fill="#ffffff"/>
<path d="M70.8309 628.55C69.8786 595.218 51.5856 555.14 44.0461 545.815H333.322C313.323 560.1 300.585 611.289 301.775 628.55V637.55C301.775 666.439 278.357 689.858 249.468 689.858H123.139C94.2499 689.858 70.8309 666.439 70.8309 637.55V628.55Z" fill="#ffffff"/>
<rect y="120.234" width="377.368" height="441.652" rx="104.615" fill="#ffffff"/>
<rect x="16.6663" y="136.9" width="344.036" height="408.319" rx="90.2307" fill="ffffff"/>
<rect opacity="0.7" x="39.2933" y="159.189" width="298.799" height="363.083" rx="64.0769" fill="#ffffff" fill-opacity="0.14"/>
</svg>
